<svg width="475" height="531" viewBox="0 0 475 531" fill="none" xmlns="http://www.w3.org/2000/svg">
<g id="Group 15">
<g id="Path">
<g id="Mask" filter="url(#filter0_d_0_1159)">
<rect y="46" width="224" height="309" rx="13" fill="white"/>
</g>
<mask id="mask0_0_1159" style="mask-type:alpha" maskUnits="userSpaceOnUse" x="0" y="46" width="224" height="309">
<rect id="Mask_2" y="46" width="224" height="309" rx="13" fill="white"/>
</mask>
<g mask="url(#mask0_0_1159)">
<path id="Path 3" fill-rule="evenodd" clip-rule="evenodd" d="M-36.8262 286.688L56.5 255.026L112 173.171L168.5 191.18L243.669 74.509V315L-36.8262 314V286.688Z" fill="url(#paint0_linear_0_1159)"/>
<path id="Path 3 Copy" d="M-36.8262 286.688L56.5 255.026L112 173.171L168.5 191.18L243.669 74.509V315" stroke="#5175FF" stroke-width="2"/>
<rect id="Rectangle" opacity="0.152227" x="112" y="46" width="1" height="250" fill="#5175FF"/>
<rect id="Rectangle Copy 7" opacity="0.152227" x="56" y="46" width="1" height="250" fill="#5175FF"/>
<rect id="Rectangle Copy 8" opacity="0.152227" x="169" y="46" width="1" height="250" fill="#5175FF"/>
<circle id="Oval" cx="112" cy="173" r="6" fill="#5175FF"/>
<circle id="Oval Copy 5" opacity="0.25" cx="112" cy="173" r="17.5" stroke="#5175FF"/>
<circle id="Oval Copy" cx="56" cy="255" r="6" fill="#5175FF"/>
<circle id="Oval Copy 2" cx="169" cy="191" r="6" fill="#5175FF"/>
<circle id="Oval Copy 3" cx="224" cy="106" r="6" fill="#5175FF"/>
<circle id="Oval Copy 4" cy="274" r="6" fill="#5175FF"/>
<g id="Group 4">
<path id="Jan" opacity="0.5" d="M103.476 338.934L103.369 337.537C104.425 337.537 104.953 337.088 104.953 336.189V328.943H106.597V336.087C106.597 337.068 106.344 337.788 105.839 338.246C105.338 338.704 104.55 338.934 103.476 338.934ZM107.821 335.523C107.821 335.165 107.923 334.844 108.127 334.562C108.335 334.279 108.62 334.055 108.981 333.89C109.343 333.725 109.757 333.643 110.222 333.643C110.369 333.643 110.523 333.652 110.684 333.67C110.849 333.688 111.014 333.711 111.178 333.74C111.06 333.156 110.636 332.864 109.905 332.864C109.472 332.864 109.037 333.027 108.6 333.353L108.068 332.048C108.441 331.869 108.808 331.736 109.169 331.65C109.531 331.564 109.875 331.521 110.201 331.521C110.72 331.521 111.169 331.62 111.549 331.817C111.932 332.01 112.229 332.286 112.44 332.644C112.652 332.999 112.757 333.416 112.757 333.896V337H111.458L111.355 336.425C111.155 336.637 110.91 336.803 110.62 336.925C110.333 337.047 110.018 337.107 109.674 337.107C109.13 337.107 108.684 336.961 108.337 336.667C107.993 336.373 107.821 335.992 107.821 335.523ZM109.368 335.168C109.368 335.347 109.436 335.493 109.572 335.604C109.712 335.711 109.895 335.765 110.12 335.765C110.428 335.765 110.686 335.672 110.894 335.485C111.105 335.299 111.21 335.07 111.21 334.798V334.69C111.078 334.647 110.935 334.613 110.781 334.588C110.63 334.563 110.482 334.551 110.335 334.551C110.031 334.551 109.792 334.604 109.621 334.712C109.452 334.819 109.368 334.972 109.368 335.168ZM114.052 337V331.629H115.405L115.47 332.284C115.681 332.041 115.933 331.853 116.227 331.72C116.524 331.588 116.85 331.521 117.205 331.521C117.831 331.521 118.331 331.729 118.703 332.145C119.076 332.556 119.262 333.131 119.262 333.869V337H117.709V334.169C117.709 333.299 117.384 332.864 116.732 332.864C116.395 332.864 116.121 332.988 115.91 333.235C115.702 333.482 115.599 333.829 115.599 334.277V337H114.052Z" fill="#747B95"/>
<path id="Dec" opacity="0.5" d="M49.0068 337.011H46.4717V328.954H49.0068C50.5895 328.954 51.8052 329.305 52.6538 330.007C53.5024 330.705 53.9268 331.693 53.9268 332.972C53.9268 334.254 53.5024 335.247 52.6538 335.953C51.8052 336.658 50.5895 337.011 49.0068 337.011ZM49.0444 335.561C50.0828 335.561 50.8778 335.335 51.4292 334.884C51.9842 334.429 52.2617 333.792 52.2617 332.972C52.2617 332.155 51.9842 331.523 51.4292 331.076C50.8778 330.628 50.0828 330.404 49.0444 330.404H48.1152V335.561H49.0444ZM55.9731 334.776C56.0698 335.074 56.2471 335.315 56.5049 335.501C56.7663 335.688 57.0706 335.781 57.418 335.781C57.7904 335.781 58.0983 335.722 58.3418 335.604C58.5889 335.482 58.8127 335.326 59.0132 335.136L59.9478 336.253C59.5324 336.579 59.1206 336.803 58.7124 336.925C58.3078 337.047 57.9193 337.107 57.5469 337.107C56.9525 337.107 56.4279 336.987 55.9731 336.748C55.5184 336.504 55.1621 336.171 54.9043 335.749C54.6465 335.322 54.5176 334.839 54.5176 334.298C54.5176 333.765 54.6411 333.29 54.8882 332.875C55.1353 332.456 55.4718 332.127 55.8979 331.887C56.3276 331.643 56.8146 331.521 57.3589 331.521C57.8996 331.521 58.3794 331.641 58.7983 331.881C59.2209 332.121 59.5539 332.451 59.7974 332.87C60.0409 333.289 60.1626 333.768 60.1626 334.309V334.776H55.9731ZM58.5728 333.917C58.4976 333.602 58.3436 333.348 58.1108 333.154C57.8781 332.961 57.5988 332.864 57.2729 332.864C56.9435 332.864 56.6571 332.963 56.4136 333.16C56.1737 333.357 56.0161 333.609 55.9409 333.917H58.5728ZM65.8989 336.312C65.6375 336.563 65.3242 336.758 64.959 336.898C64.5973 337.038 64.2035 337.107 63.7773 337.107C63.208 337.107 62.6995 336.987 62.252 336.748C61.8079 336.504 61.457 336.173 61.1992 335.754C60.9414 335.331 60.8125 334.852 60.8125 334.314C60.8125 333.777 60.9414 333.299 61.1992 332.88C61.457 332.458 61.8079 332.127 62.252 331.887C62.6995 331.643 63.208 331.521 63.7773 331.521C64.2035 331.521 64.5973 331.591 64.959 331.731C65.3242 331.871 65.6375 332.066 65.8989 332.316L64.8086 333.342C64.5508 333.024 64.207 332.864 63.7773 332.864C63.3835 332.864 63.0576 333.002 62.7998 333.278C62.542 333.554 62.4131 333.899 62.4131 334.314C62.4131 334.73 62.542 335.075 62.7998 335.351C63.0576 335.627 63.3835 335.765 63.7773 335.765C64.207 335.765 64.5508 335.605 64.8086 335.287L65.8989 336.312Z" fill="#747B95"/>
<path id="Nov" opacity="0.5" d="M-9.68408 328.943H-8.05127L-3.91553 334.357V328.943H-2.27197V337H-3.93164L-8.07275 331.575V337H-9.68408V328.943ZM-1.25146 334.314C-1.25146 333.777 -1.12793 333.299 -0.880859 332.88C-0.630208 332.458 -0.290039 332.127 0.139648 331.887C0.572917 331.643 1.06527 331.521 1.6167 331.521C2.16813 331.521 2.65869 331.643 3.08838 331.887C3.51807 332.127 3.85645 332.458 4.10352 332.88C4.35417 333.299 4.47949 333.777 4.47949 334.314C4.47949 334.852 4.35417 335.331 4.10352 335.754C3.85645 336.173 3.51807 336.504 3.08838 336.748C2.65869 336.987 2.16813 337.107 1.6167 337.107C1.06527 337.107 0.572917 336.987 0.139648 336.748C-0.290039 336.504 -0.630208 336.173 -0.880859 335.754C-1.12793 335.331 -1.25146 334.852 -1.25146 334.314ZM0.252441 334.314C0.252441 334.73 0.381348 335.075 0.63916 335.351C0.896973 335.627 1.22282 335.765 1.6167 335.765C2.01058 335.765 2.33643 335.627 2.59424 335.351C2.85205 335.075 2.98096 334.73 2.98096 334.314C2.98096 333.899 2.85205 333.554 2.59424 333.278C2.33643 333.002 2.01058 332.864 1.6167 332.864C1.22282 332.864 0.896973 333.002 0.63916 333.278C0.381348 333.554 0.252441 333.899 0.252441 334.314ZM4.58154 331.629H6.2627L7.23486 334.245C7.28499 334.381 7.34049 334.579 7.40137 334.841C7.46582 335.102 7.51595 335.339 7.55176 335.55H7.57324C7.61621 335.339 7.66992 335.104 7.73438 334.846C7.80241 334.588 7.86149 334.388 7.91162 334.245L8.80859 331.629H10.436L8.31445 337H6.81055L4.58154 331.629Z" fill="#747B95"/>
<path id="Feb" opacity="0.5" d="M159.003 328.943H163.966V330.394H160.647V332.134H163.751V333.584H160.647V337H159.003V328.943ZM166.281 334.776C166.378 335.074 166.555 335.315 166.813 335.501C167.074 335.688 167.379 335.781 167.726 335.781C168.098 335.781 168.406 335.722 168.65 335.604C168.897 335.482 169.121 335.326 169.321 335.136L170.256 336.253C169.84 336.579 169.429 336.803 169.021 336.925C168.616 337.047 168.227 337.107 167.855 337.107C167.261 337.107 166.736 336.987 166.281 336.748C165.826 336.504 165.47 336.171 165.212 335.749C164.955 335.322 164.826 334.839 164.826 334.298C164.826 333.765 164.949 333.29 165.196 332.875C165.443 332.456 165.78 332.127 166.206 331.887C166.636 331.643 167.123 331.521 167.667 331.521C168.208 331.521 168.688 331.641 169.106 331.881C169.529 332.121 169.862 332.451 170.105 332.87C170.349 333.289 170.471 333.768 170.471 334.309V334.776H166.281ZM168.881 333.917C168.806 333.602 168.652 333.348 168.419 333.154C168.186 332.961 167.907 332.864 167.581 332.864C167.252 332.864 166.965 332.963 166.722 333.16C166.482 333.357 166.324 333.609 166.249 333.917H168.881ZM171.497 337V328.943H173.043V332.161C173.269 331.96 173.527 331.804 173.817 331.693C174.107 331.579 174.42 331.521 174.757 331.521C175.262 331.521 175.711 331.643 176.105 331.887C176.499 332.127 176.809 332.458 177.034 332.88C177.26 333.299 177.373 333.777 177.373 334.314C177.373 334.852 177.26 335.331 177.034 335.754C176.809 336.173 176.499 336.504 176.105 336.748C175.711 336.987 175.262 337.107 174.757 337.107C174.41 337.107 174.085 337.048 173.785 336.93C173.484 336.808 173.221 336.638 172.995 336.42L172.958 337H171.497ZM174.408 335.765C174.802 335.765 175.127 335.627 175.385 335.351C175.643 335.075 175.772 334.73 175.772 334.314C175.772 333.899 175.643 333.554 175.385 333.278C175.127 333.002 174.802 332.864 174.408 332.864C174.014 332.864 173.688 333.002 173.43 333.278C173.172 333.554 173.043 333.899 173.043 334.314C173.043 334.73 173.172 335.075 173.43 335.351C173.688 335.627 174.014 335.765 174.408 335.765Z" fill="#747B95"/>
<path id="Mar" opacity="0.5" d="M214.418 337V328.943H216.556L218.328 332.741C218.41 332.948 218.491 333.158 218.57 333.369C218.652 333.577 218.731 333.786 218.806 333.998C218.881 333.779 218.96 333.562 219.042 333.348C219.128 333.133 219.216 332.931 219.306 332.741L221.073 328.943H223.167V337H221.524C221.524 336.019 221.533 335.061 221.551 334.126C221.569 333.192 221.606 332.256 221.664 331.317C221.57 331.564 221.472 331.81 221.368 332.053C221.268 332.297 221.162 332.537 221.051 332.773L219.692 335.684H217.888L216.534 332.784C216.423 332.512 216.316 332.245 216.212 331.983C216.108 331.718 216.006 331.453 215.906 331.188C215.945 331.812 215.976 332.415 215.997 332.999C216.022 333.579 216.038 334.189 216.045 334.83C216.056 335.471 216.062 336.194 216.062 337H214.418ZM224.397 335.523C224.397 335.165 224.5 334.844 224.704 334.562C224.911 334.279 225.196 334.055 225.558 333.89C225.919 333.725 226.333 333.643 226.798 333.643C226.945 333.643 227.099 333.652 227.26 333.67C227.425 333.688 227.59 333.711 227.754 333.74C227.636 333.156 227.212 332.864 226.481 332.864C226.048 332.864 225.613 333.027 225.176 333.353L224.645 332.048C225.017 331.869 225.384 331.736 225.746 331.65C226.107 331.564 226.451 331.521 226.777 331.521C227.296 331.521 227.745 331.62 228.125 331.817C228.508 332.01 228.805 332.286 229.017 332.644C229.228 332.999 229.333 333.416 229.333 333.896V337H228.034L227.932 336.425C227.731 336.637 227.486 336.803 227.196 336.925C226.909 337.047 226.594 337.107 226.25 337.107C225.706 337.107 225.26 336.961 224.913 336.667C224.569 336.373 224.397 335.992 224.397 335.523ZM225.944 335.168C225.944 335.347 226.012 335.493 226.148 335.604C226.288 335.711 226.471 335.765 226.696 335.765C227.004 335.765 227.262 335.672 227.47 335.485C227.681 335.299 227.787 335.07 227.787 334.798V334.69C227.654 334.647 227.511 334.613 227.357 334.588C227.207 334.563 227.058 334.551 226.911 334.551C226.607 334.551 226.369 334.604 226.197 334.712C226.028 334.819 225.944 334.972 225.944 335.168ZM230.628 337V331.629H231.981L232.057 332.397C232.447 331.813 232.984 331.521 233.668 331.521C233.901 331.521 234.141 331.557 234.388 331.629L234.173 332.966C233.965 332.898 233.761 332.864 233.561 332.864C233.145 332.864 232.81 333.018 232.556 333.326C232.302 333.631 232.175 334.066 232.175 334.631V337H230.628Z" fill="#747B95"/>
<rect id="Rectangle_2" opacity="0.25" y="314" width="224" height="1" fill="#747B95"/>
<rect id="Rectangle Copy 4" opacity="0.25" x="112" y="306" width="1" height="8" fill="#747B95"/>
<rect id="Rectangle Copy 5" opacity="0.25" x="56" y="306" width="1" height="8" fill="#747B95"/>
<rect id="Rectangle Copy 6" opacity="0.25" x="168" y="306" width="1" height="8" fill="#747B95"/>
</g>
</g>
</g>
<g id="Group 7">
<g id="Group 17">
<g id="Mask_3" filter="url(#filter1_d_0_1159)">
<rect y="385" width="224" height="146" rx="13" fill="#333950"/>
</g>
<mask id="mask1_0_1159" style="mask-type:alpha" maskUnits="userSpaceOnUse" x="0" y="385" width="224" height="146">
<rect id="Mask_4" y="385" width="224" height="146" rx="13" fill="white"/>
</mask>
<g mask="url(#mask1_0_1159)">
<g id="Group 17_2">
<g id="Aa">
<path id="Aa_2" fill-rule="evenodd" clip-rule="evenodd" d="M80.64 477.552V480H64.152V477.552L70.128 476.688L86.4 426H93.888L111.168 476.904L116.928 477.552V480H92.376V477.552L98.784 476.832L94.392 462.936H77.832L73.872 476.616L80.64 477.552ZM78.552 460.416H93.6L85.752 435.792L78.552 460.416ZM151.776 481.224C156.384 481.224 159.12 479.568 160.92 475.608L159.696 474.6C158.328 476.76 157.536 477.336 156.456 477.336C155.088 477.336 154.224 476.4 154.224 473.664V454.296C154.224 443.856 150.12 439.464 139.896 439.464C128.736 439.464 122.472 443.784 121.896 450.552C122.472 452.928 124.272 454.224 126.864 454.224C129.6 454.224 132.048 452.28 132.264 447.384L132.768 442.272C133.848 442.056 134.784 441.984 135.792 441.984C141.264 441.984 142.992 444.216 142.992 451.704V456.096C140.472 456.744 137.952 457.392 135.936 457.968C124.344 461.352 120.6 464.88 120.6 471.432C120.6 477.48 124.92 481.224 131.112 481.224C136.872 481.224 139.608 478.992 143.28 474.96C144.36 478.848 147.024 481.224 151.776 481.224ZM131.328 469.992C131.328 474.312 133.344 476.328 136.728 476.328C138.672 476.328 140.328 475.392 142.992 473.016V458.04C141.336 458.472 139.896 458.904 139.032 459.264C133.992 461.352 131.328 464.736 131.328 469.992Z" fill="#FEFEFE"/>
<path id="Decoration" d="M63 485V489H158.132V485H63Z" fill="#FEFEFE"/>
</g>
<g id="Aa Copy" opacity="0.15">
<path id="Decoration_2" d="M-67 456V460H28.132V456H-67Z" fill="#FEFEFE"/>
</g>
<g id="Aa Copy 2" opacity="0.15">
<path id="Decoration_3" d="M193 456V460H288.132V456H193Z" fill="#FEFEFE"/>
</g>
</g>
</g>
</g>
</g>
<g id="Group 8" clip-path="url(#clip0_0_1159)">
<g id="Rectangle Copy" filter="url(#filter2_d_0_1159)">
<rect x="251" width="224" height="483" rx="13" fill="#5175FF"/>
</g>
<rect id="Rectangle_3" opacity="0.15" x="251" y="182" width="224" height="1" fill="white"/>
<g id="Group 3">
<circle id="Oval Copy 6" opacity="0.145996" cx="363" cy="91" r="55.5" stroke="white" stroke-linejoin="round"/>
<path id="87%" d="M335.703 91.5C334.641 90.9896 333.807 90.2865 333.203 89.3906C332.609 88.4844 332.312 87.4323 332.312 86.2344C332.312 85.0052 332.625 83.9323 333.25 83.0156C333.875 82.0885 334.75 81.3698 335.875 80.8594C337.01 80.349 338.333 80.0938 339.844 80.0938C341.344 80.0938 342.656 80.349 343.781 80.8594C344.906 81.3698 345.781 82.0885 346.406 83.0156C347.031 83.9323 347.344 85.0052 347.344 86.2344C347.344 87.4219 347.042 88.4688 346.438 89.375C345.844 90.2812 345.021 90.9896 343.969 91.5C345.271 92.0417 346.286 92.8438 347.016 93.9062C347.755 94.9583 348.125 96.1927 348.125 97.6094C348.125 98.974 347.776 100.172 347.078 101.203C346.391 102.234 345.427 103.036 344.188 103.609C342.948 104.182 341.5 104.469 339.844 104.469C338.188 104.469 336.74 104.182 335.5 103.609C334.26 103.036 333.292 102.234 332.594 101.203C331.906 100.172 331.562 98.974 331.562 97.6094C331.562 96.1927 331.927 94.9583 332.656 93.9062C333.396 92.8438 334.411 92.0417 335.703 91.5ZM336.875 86.6562C336.875 87.5 337.146 88.1823 337.688 88.7031C338.24 89.2135 338.958 89.4688 339.844 89.4688C340.719 89.4688 341.427 89.2135 341.969 88.7031C342.521 88.1823 342.797 87.5 342.797 86.6562C342.797 85.8021 342.521 85.1198 341.969 84.6094C341.427 84.099 340.719 83.8438 339.844 83.8438C338.958 83.8438 338.24 84.099 337.688 84.6094C337.146 85.1198 336.875 85.8021 336.875 86.6562ZM339.844 100.25C340.969 100.25 341.87 99.9479 342.547 99.3438C343.234 98.7396 343.578 97.9479 343.578 96.9688C343.578 95.9792 343.234 95.1875 342.547 94.5938C341.87 93.9896 340.969 93.6875 339.844 93.6875C338.719 93.6875 337.812 93.9896 337.125 94.5938C336.448 95.1875 336.109 95.9792 336.109 96.9688C336.109 97.9479 336.448 98.7396 337.125 99.3438C337.812 99.9479 338.719 100.25 339.844 100.25ZM351.719 84.7812V80.5625H366.906V83.875L358.922 104H353.766L361.359 84.7812H351.719ZM376.297 80.4062C377.401 80.4062 378.333 80.5833 379.094 80.9375C379.854 81.2812 380.469 81.7344 380.938 82.2969C381.406 82.849 381.745 83.4531 381.953 84.1094C382.161 84.7552 382.266 85.3854 382.266 86C382.266 86.6042 382.161 87.2344 381.953 87.8906C381.745 88.5469 381.406 89.1562 380.938 89.7188C380.469 90.2708 379.854 90.724 379.094 91.0781C378.333 91.4219 377.401 91.5938 376.297 91.5938C374.828 91.5938 373.656 91.2969 372.781 90.7031C371.917 90.1094 371.292 89.3802 370.906 88.5156C370.531 87.651 370.344 86.8125 370.344 86C370.344 85.1875 370.531 84.349 370.906 83.4844C371.292 82.6198 371.917 81.8906 372.781 81.2969C373.656 80.7031 374.828 80.4062 376.297 80.4062ZM388.969 80.5312H393.234L378.281 104.016H374.031L388.969 80.5312ZM376.297 88.3125C376.911 88.3125 377.391 88.0885 377.734 87.6406C378.078 87.1927 378.25 86.6458 378.25 86C378.25 85.3542 378.078 84.8073 377.734 84.3594C377.391 83.9115 376.911 83.6875 376.297 83.6875C375.693 83.6875 375.219 83.9115 374.875 84.3594C374.531 84.8073 374.359 85.3542 374.359 86C374.359 86.6458 374.531 87.1927 374.875 87.6406C375.219 88.0885 375.693 88.3125 376.297 88.3125ZM390.938 92.9688C392.042 92.9688 392.974 93.1458 393.734 93.5C394.495 93.8438 395.109 94.2969 395.578 94.8594C396.047 95.4219 396.385 96.0312 396.594 96.6875C396.802 97.3333 396.906 97.9583 396.906 98.5625C396.906 99.375 396.714 100.214 396.328 101.078C395.943 101.943 395.312 102.672 394.438 103.266C393.573 103.859 392.406 104.156 390.938 104.156C389.469 104.156 388.297 103.859 387.422 103.266C386.557 102.672 385.932 101.943 385.547 101.078C385.172 100.214 384.984 99.375 384.984 98.5625C384.984 97.9583 385.089 97.3333 385.297 96.6875C385.505 96.0312 385.839 95.4219 386.297 94.8594C386.766 94.2969 387.38 93.8438 388.141 93.5C388.901 93.1458 389.833 92.9688 390.938 92.9688ZM390.938 100.875C391.552 100.875 392.031 100.656 392.375 100.219C392.719 99.7708 392.891 99.224 392.891 98.5781C392.891 97.9219 392.719 97.3698 392.375 96.9219C392.031 96.474 391.552 96.25 390.938 96.25C390.323 96.25 389.844 96.474 389.5 96.9219C389.167 97.3698 389 97.9219 389 98.5781C389 99.224 389.167 99.7708 389.5 100.219C389.844 100.656 390.323 100.875 390.938 100.875Z" fill="#5CFCD3"/>
</g>
<path id="98k" d="M338.855 229.375C336.902 229.375 335.164 228.965 333.641 228.145C332.117 227.324 330.919 226.198 330.047 224.766C329.188 223.333 328.758 221.693 328.758 219.844C328.758 217.943 329.207 216.263 330.105 214.805C331.017 213.346 332.26 212.201 333.836 211.367C335.424 210.534 337.234 210.117 339.266 210.117C341.375 210.117 343.211 210.573 344.773 211.484C346.349 212.383 347.566 213.652 348.426 215.293C349.285 216.934 349.715 218.854 349.715 221.055C349.715 223.542 349.161 226.035 348.055 228.535C346.961 231.022 345.418 233.353 343.426 235.527C341.447 237.702 339.122 239.557 336.453 241.094L332.859 237.012C334.721 235.931 336.388 234.714 337.859 233.359C339.331 232.005 340.522 230.579 341.434 229.082C341.069 229.173 340.672 229.245 340.242 229.297C339.826 229.349 339.363 229.375 338.855 229.375ZM339.168 224.766C340.444 224.766 341.499 224.323 342.332 223.438C343.178 222.552 343.602 221.432 343.602 220.078C343.602 218.724 343.185 217.604 342.352 216.719C341.531 215.833 340.483 215.391 339.207 215.391C337.944 215.391 336.896 215.84 336.062 216.738C335.229 217.624 334.812 218.75 334.812 220.117C334.812 221.471 335.223 222.585 336.043 223.457C336.863 224.329 337.905 224.766 339.168 224.766ZM359.441 224.375C358.113 223.737 357.072 222.858 356.316 221.738C355.574 220.605 355.203 219.29 355.203 217.793C355.203 216.257 355.594 214.915 356.375 213.77C357.156 212.611 358.25 211.712 359.656 211.074C361.076 210.436 362.729 210.117 364.617 210.117C366.492 210.117 368.133 210.436 369.539 211.074C370.945 211.712 372.039 212.611 372.82 213.77C373.602 214.915 373.992 216.257 373.992 217.793C373.992 219.277 373.615 220.586 372.859 221.719C372.117 222.852 371.089 223.737 369.773 224.375C371.401 225.052 372.671 226.055 373.582 227.383C374.507 228.698 374.969 230.241 374.969 232.012C374.969 233.717 374.533 235.215 373.66 236.504C372.801 237.793 371.596 238.796 370.047 239.512C368.497 240.228 366.688 240.586 364.617 240.586C362.547 240.586 360.737 240.228 359.188 239.512C357.638 238.796 356.427 237.793 355.555 236.504C354.695 235.215 354.266 233.717 354.266 232.012C354.266 230.241 354.721 228.698 355.633 227.383C356.557 226.055 357.827 225.052 359.441 224.375ZM360.906 218.32C360.906 219.375 361.245 220.228 361.922 220.879C362.612 221.517 363.51 221.836 364.617 221.836C365.711 221.836 366.596 221.517 367.273 220.879C367.964 220.228 368.309 219.375 368.309 218.32C368.309 217.253 367.964 216.4 367.273 215.762C366.596 215.124 365.711 214.805 364.617 214.805C363.51 214.805 362.612 215.124 361.922 215.762C361.245 216.4 360.906 217.253 360.906 218.32ZM364.617 235.312C366.023 235.312 367.15 234.935 367.996 234.18C368.855 233.424 369.285 232.435 369.285 231.211C369.285 229.974 368.855 228.984 367.996 228.242C367.15 227.487 366.023 227.109 364.617 227.109C363.211 227.109 362.078 227.487 361.219 228.242C360.372 228.984 359.949 229.974 359.949 231.211C359.949 232.435 360.372 233.424 361.219 234.18C362.078 234.935 363.211 235.312 364.617 235.312ZM379.461 240V210.703H385.086V228.477C385.477 227.865 385.906 227.272 386.375 226.699C386.844 226.113 387.358 225.495 387.918 224.844L391.707 220.469H397.859L390.359 229.238L399.266 240H392.371L386.785 233.398L385.086 235.391V240H379.461Z" fill="white"/>
<g id="Group 2">
<rect id="Rectangle_4" x="283" y="282" width="14" height="14" rx="7" fill="white"/>
<rect id="Rectangle Copy 3" x="312" y="282" width="131" height="14" rx="7" fill="#7DA7FF"/>
</g>
<g id="Group 2 Copy">
<rect id="Rectangle_5" x="283" y="316" width="14" height="14" rx="7" fill="white"/>
<rect id="Rectangle Copy 3_2" x="312" y="316" width="83" height="14" rx="7" fill="#7DA7FF"/>
</g>
<g id="Group 2 Copy 2">
<rect id="Rectangle_6" x="283" y="350" width="14" height="14" rx="7" fill="white"/>
<rect id="Rectangle Copy 3_3" x="312" y="350" width="131" height="14" rx="7" fill="#7DA7FF"/>
</g>
<g id="Group 2 Copy 3">
<rect id="Rectangle_7" x="283" y="384" width="14" height="14" rx="7" fill="white"/>
<rect id="Rectangle Copy 3_4" x="312" y="384" width="79" height="14" rx="7" fill="#7DA7FF"/>
</g>
<g id="Group 2 Copy 4">
<rect id="Rectangle_8" x="283" y="418" width="14" height="14" rx="7" fill="white"/>
<rect id="Rectangle Copy 3_5" x="312" y="418" width="131" height="14" rx="7" fill="#7DA7FF"/>
</g>
<g id="Oval 1">
<g id="Designs">
<path id="Oval_2" d="M341.475 142.284L344.997 134.275C350.932 136.885 357.366 138.25 364 138.25C390.095 138.25 411.25 117.095 411.25 91C411.25 64.9045 390.095 43.75 364 43.75C337.905 43.75 316.75 64.9045 316.75 91H308C308 60.0721 333.072 35 364 35C394.928 35 420 60.0721 420 91C420 121.928 394.928 147 364 147C356.147 147 348.514 145.38 341.475 142.284Z" fill="#5CFCD3"/>
</g>
</g>
</g>
</g>
<defs>
<filter id="filter0_d_0_1159" x="-25" y="46" width="274" height="384" filterUnits="userSpaceOnUse" color-interpolation-filters="sRGB">
<feFlood flood-opacity="0" result="BackgroundImageFix"/>
<feColorMatrix in="SourceAlpha" type="matrix" values="0 0 0 0 0 0 0 0 0 0 0 0 0 0 0 0 0 0 127 0" result="hardAlpha"/>
<feMorphology radius="25" operator="erode" in="SourceAlpha" result="effect1_dropShadow_0_1159"/>
<feOffset dy="50"/>
<feGaussianBlur stdDeviation="25"/>
<feColorMatrix type="matrix" values="0 0 0 0 0.293478 0 0 0 0 0.35972 0 0 0 0 0.604535 0 0 0 0.247159 0"/>
<feBlend mode="normal" in2="BackgroundImageFix" result="effect1_dropShadow_0_1159"/>
<feBlend mode="normal" in="SourceGraphic" in2="effect1_dropShadow_0_1159" result="shape"/>
</filter>
<filter id="filter1_d_0_1159" x="-25" y="385" width="274" height="221" filterUnits="userSpaceOnUse" color-interpolation-filters="sRGB">
<feFlood flood-opacity="0" result="BackgroundImageFix"/>
<feColorMatrix in="SourceAlpha" type="matrix" values="0 0 0 0 0 0 0 0 0 0 0 0 0 0 0 0 0 0 127 0" result="hardAlpha"/>
<feMorphology radius="25" operator="erode" in="SourceAlpha" result="effect1_dropShadow_0_1159"/>
<feOffset dy="50"/>
<feGaussianBlur stdDeviation="25"/>
<feColorMatrix type="matrix" values="0 0 0 0 0.293478 0 0 0 0 0.35972 0 0 0 0 0.604535 0 0 0 0.247159 0"/>
<feBlend mode="normal" in2="BackgroundImageFix" result="effect1_dropShadow_0_1159"/>
<feBlend mode="normal" in="SourceGraphic" in2="effect1_dropShadow_0_1159" result="shape"/>
</filter>
<filter id="filter2_d_0_1159" x="226" y="0" width="274" height="558" filterUnits="userSpaceOnUse" color-interpolation-filters="sRGB">
<feFlood flood-opacity="0" result="BackgroundImageFix"/>
<feColorMatrix in="SourceAlpha" type="matrix" values="0 0 0 0 0 0 0 0 0 0 0 0 0 0 0 0 0 0 127 0" result="hardAlpha"/>
<feMorphology radius="25" operator="erode" in="SourceAlpha" result="effect1_dropShadow_0_1159"/>
<feOffset dy="50"/>
<feGaussianBlur stdDeviation="25"/>
<feColorMatrix type="matrix" values="0 0 0 0 0.293478 0 0 0 0 0.35972 0 0 0 0 0.604535 0 0 0 0.247159 0"/>
<feBlend mode="normal" in2="BackgroundImageFix" result="effect1_dropShadow_0_1159"/>
<feBlend mode="normal" in="SourceGraphic" in2="effect1_dropShadow_0_1159" result="shape"/>
</filter>
<linearGradient id="paint0_linear_0_1159" x1="-36.8262" y1="74.509" x2="-36.8262" y2="315" gradientUnits="userSpaceOnUse">
<stop stop-color="#024AFF" stop-opacity="0.148028"/>
<stop offset="1" stop-color="#3B77CF" stop-opacity="0.01"/>
</linearGradient>
<clipPath id="clip0_0_1159">
<rect width="224" height="483" fill="white" transform="translate(251)"/>
</clipPath>
</defs>
</svg>
